<?xml version="1.0" encoding="utf-8"?>
<!-- Generator: Adobe Illustrator 25.0.1, SVG Export Plug-In . SVG Version: 6.00 Build 0)  -->
<svg version="1.1" id="Ebene_1" xmlns="http://www.w3.org/2000/svg" xmlns:xlink="http://www.w3.org/1999/xlink" x="0px" y="0px"
	 viewBox="0 0 600 600" style="enable-background:new 0 0 600 600;" xml:space="preserve">
<style type="text/css">
	.st0{stroke:#000000;stroke-width:15;}
	.st1{fill:none;stroke:#000000;stroke-width:40;stroke-miterlimit:25;stroke-dasharray:70,40,0,0,0;}
</style>
<g id="inner_circle">
	<g>
		<path d="M511.4007,300c-0.01776,5.828-0.22119,11.6506-0.66449,17.46228c-0.22775,2.98553-0.51324,5.96661-0.85867,8.94083
			c-0.11108,0.95615-0.54181,4.09268-0.16431,1.46265c-0.22684,1.58032-0.46292,3.159-0.71896,4.73486
			c-1.84155,11.33344-4.54706,22.52808-8.09839,33.44751c-1.71915,5.28598-3.67178,10.47717-5.73221,15.63806
			c-0.6416,1.60709,0.1413-0.30237,0.23398-0.52109c-0.25858,0.61029-0.52182,1.21899-0.78909,1.82553
			c-0.53415,1.21216-1.07129,2.42264-1.62299,3.62695c-1.19275,2.60364-2.4343,5.18497-3.7254,7.7413
			c-5.03809,9.97507-10.81906,19.57388-17.27399,28.69608c-1.51346,2.13882-3.06998,4.24506-4.64954,6.33539
			c-1.0293,1.36212,0.20181-0.26227,0.34607-0.44531c-0.40494,0.51389-0.80783,1.02951-1.21829,1.53903
			c-0.95752,1.18866-1.91492,2.37695-2.89072,3.55078c-3.62152,4.35629-7.4061,8.57767-11.34238,12.65182
			c-3.78406,3.9166-7.70923,7.69678-11.76416,11.33209c-1.94727,1.74576-3.92441,3.45779-5.93066,5.13544
			c-1.00351,0.83914-2.01431,1.6694-3.03204,2.49127c-0.50891,0.41101-1.02402,0.81458-1.5318,1.22699
			c-3.24872,2.6384,1.34668-0.99878-0.58231,0.46417c-8.71774,6.61157-17.88449,12.61465-27.45758,17.91489
			c-5.00476,2.77094-10.11432,5.35147-15.31519,7.73404c-1.20432,0.5517-2.41479,1.08884-3.62695,1.62299
			c-0.60654,0.26727-1.21524,0.53052-1.82553,0.78909c0.21872-0.09268,2.12817-0.87558,0.52109-0.23398
			c-2.67783,1.06909-5.35507,2.13275-8.06433,3.1207c-10.73816,3.91562-21.77225,7.01266-32.98029,9.25339
			c-2.6713,0.53406-5.35205,1.01959-8.04095,1.45651c-1.35052,0.21942-2.70346,0.42026-4.05676,0.6214
			c-1.76846,0.26285,0.3476-0.04141,0.58942-0.07205c-0.90958,0.11517-1.81943,0.22812-2.73016,0.33392
			c-5.97159,0.69357-11.97125,1.14957-17.97894,1.36932c-11.62082,0.42511-23.27606-0.02768-34.82727-1.36932
			c-0.95615-0.11108-4.09268-0.54181-1.46265-0.16431c-1.58035-0.22684-3.15894-0.46289-4.73486-0.71896
			c-2.91226-0.47321-5.81543-1.0025-8.70691-1.58963c-5.51448-1.11978-10.98671-2.44736-16.40164-3.9776
			c-5.36565-1.5163-10.67426-3.23257-15.91267-5.14267c-2.70953-0.98798-5.3864-2.05154-8.06433-3.1207
			c-1.60709-0.6416,0.30235,0.1413,0.52109,0.23398c-0.61031-0.25858-1.21899-0.52182-1.82556-0.78909
			c-1.41402-0.62308-2.82564-1.25092-4.22861-1.89862c-10.16487-4.69278-19.97797-10.14526-29.33575-16.29141
			c-4.56343-2.99722-9.024-6.1553-13.35629-9.47824c2.00822,1.54034-0.36919-0.31006-1.08418-0.88388
			c-1.0202-0.81879-2.03343-1.64645-3.03935-2.4827c-2.17863-1.81116-4.32281-3.66373-6.43231-5.55493
			c-8.27324-7.41708-16.00336-15.43954-23.10655-23.98392c-0.83626-1.00595-1.66391-2.01917-2.4827-3.03937
			c-0.57384-0.715-2.42422-3.09241-0.8839-1.0842c-1.85988-2.42484-3.6664-4.89157-5.42436-7.3912
			c-3.14585-4.47308-6.12921-9.06036-8.94337-13.74918c-2.82417-4.70554-5.47798-9.51337-7.95213-14.41202
			c-1.19163-2.35934-2.34189-4.73984-3.44979-7.13965c-0.64771-1.40295-1.27551-2.81458-1.89861-4.22861
			c-0.26727-0.60654-0.53051-1.21524-0.78911-1.82553c0.57555,1.35834,0.46762,1.14914-0.01747-0.09354
			c-4.06526-10.41415-7.60838-20.9552-10.22941-31.83301c-1.37881-5.72235-2.5328-11.49936-3.45926-17.31207
			c-0.21545-1.35175-0.41497-2.70584-0.60944-4.06073c0.3775,2.63004-0.05323-0.5065-0.16429-1.46265
			c-0.34545-2.97421-0.63094-5.95532-0.85867-8.94083c-0.90384-11.84885-0.88714-23.76999,0.05275-35.61615
			c0.21853-2.75424,0.48715-5.50479,0.80592-8.24924c0.11106-0.95615,0.54179-4.09268,0.16429-1.46265
			c0.22683-1.58032,0.46292-3.159,0.71898-4.73486c0.94367-5.80765,2.11439-11.57779,3.50983-17.29373
			c2.65028-10.85593,6.17966-21.41933,10.32076-31.79182c0.64161-1.60709-0.1413,0.30235-0.23398,0.52109
			c0.34476-0.81366,0.69829-1.62419,1.05445-2.43285c0.53374-1.21184,1.07822-2.41908,1.63326-3.62132
			c1.20014-2.59958,2.45072-5.17583,3.749-7.72778c2.48804-4.89059,5.15376-9.69083,7.99115-14.38741
			c2.94028-4.86688,6.06431-9.62331,9.36211-14.25539c1.51906-2.13367,3.07333-4.24319,4.66739-6.32147
			c-1.54033,2.00822,0.31006-0.36919,0.8839-1.08418c0.95525-1.19023,1.9232-2.37025,2.90221-3.54103
			c7.12759-8.5238,14.87926-16.52528,23.17374-23.91859c1.95222-1.74013,3.93459-3.44676,5.94562-5.11859
			c1.00592-0.83626,2.01915-1.66391,3.03935-2.4827c0.51027-0.40952,1.02573-0.81252,1.53664-1.22119
			c1.79694-1.43738-1.76797,1.32867,0.0685-0.05905c4.35809-3.2932,8.80884-6.45621,13.38371-9.44205
			c9.37721-6.12012,19.20879-11.54321,29.38905-16.20688c1.2043-0.5517,2.41479-1.08884,3.62694-1.62297
			c0.60657-0.26727,1.21526-0.53051,1.82556-0.78911c-0.21873,0.09268-2.12817,0.87559-0.52109,0.23398
			c2.88429-1.15152,5.77031-2.29063,8.69124-3.34733c5.24463-1.89735,10.56076-3.59812,15.93237-5.09876
			c5.42184-1.51468,10.90083-2.82439,16.42099-3.928c2.89447-0.57867,5.80011-1.10143,8.71509-1.56602
			c1.35175-0.21545,2.70584-0.41497,4.06073-0.60944c-2.83804,0.40736,1.23523-0.13857,2.14706-0.24168
			c11.55914-1.30704,23.21771-1.72491,34.84116-1.26427c6.00375,0.23793,11.99759,0.71179,17.96381,1.42311
			c0.68271,0.0814,1.36493,0.16609,2.047,0.25246c-0.24182-0.03062-2.35788-0.33489-0.58942-0.07204
			c1.3533,0.20115,2.70624,0.40196,4.05676,0.6214c2.91226,0.47321,5.81543,1.00249,8.70691,1.58963
			c11.19653,2.27357,22.21838,5.40244,32.93951,9.35049c2.49759,0.91974,4.96762,1.90373,7.43915,2.89046
			c1.60709,0.64161-0.30237-0.1413-0.52109-0.23398c0.61029,0.2586,1.21899,0.52184,1.82553,0.78911
			c1.41403,0.62308,2.82565,1.2509,4.22861,1.89861c5.19257,2.39724,10.29416,4.99255,15.28961,7.77736
			c9.55011,5.32392,18.72623,11.33758,27.40244,17.99229c-2.34518-1.79877,1.03122,0.84114,1.59317,1.29482
			c1.01785,0.82172,2.02853,1.65213,3.03204,2.49129c2.17334,1.81732,4.31335,3.67455,6.41736,5.57175
			c4.04449,3.64694,7.95746,7.43967,11.73019,11.36703c3.9249,4.08577,7.69699,8.31761,11.3063,12.68469
			c0.83353,1.00853,1.65329,2.02777,2.47406,3.04665c0.41046,0.50952,0.81335,1.02515,1.21829,1.53903
			c-0.14426-0.18306-1.37537-1.80743-0.34607-0.44531c1.71124,2.26457,3.39508,4.5484,5.02802,6.87029
			c6.42957,9.14217,12.18185,18.76015,17.19138,28.7513c1.18503,2.36345,2.3284,4.74751,3.42953,7.15118
			c0.5517,1.2043,1.08884,2.41479,1.62299,3.62694c0.26727,0.60657,0.53052,1.21526,0.78909,1.82556
			c-0.57553-1.35834-0.46762-1.14915,0.01749,0.09351c2.10309,5.38759,4.13507,10.784,5.89056,16.29741
			c3.41748,10.73317,6.02515,21.72409,7.7981,32.84769c0.21545,1.35175,0.41498,2.70584,0.60944,4.06073
			c-0.3775-2.63004,0.05301,0.50653,0.16431,1.46265c0.34613,2.97409,0.63092,5.95535,0.85867,8.94083
			C511.1795,288.34943,511.38293,294.17197,511.4007,300c0.0239,7.8454,6.8822,15.36359,15,15
			c8.10657-0.3631,15.02563-6.59125,15-15c-0.15027-49.31342-15.23065-98.47807-43.88889-138.73141
			c-28.7532-40.38663-68.74857-71.11234-115.28958-88.25108c-46.95404-17.29084-99.80157-18.96706-147.90659-5.37291
			c-46.5463,13.15367-89.20526,40.71479-119.93584,78.11562c-31.88171,38.80182-51.08841,85.98787-55.06325,136.08592
			c-3.92557,49.47714,8.15143,100.15948,33.80953,142.62988c24.89347,41.20474,62.37568,75.142,106.31998,94.96155
			c46.78612,21.1012,98.8017,27.09845,149.17068,17.02856c47.63467-9.52325,92.20911-34.40967,125.73322-69.50879
			c33.49838-35.0722,56.53638-80.3801,63.89331-128.40662c1.95807-12.78232,3.11798-25.61627,3.15741-38.55072
			c0.02393-7.84686-6.91644-15.36206-15-15C518.25317,285.36493,511.4263,291.59033,511.4007,300z"/>
	</g>
</g>
<g>
	<path class="st0" d="M153.29541,300.11719l74.51758-55.75342v16.09619l-62.79395,45.72168v0.4668l62.79395,45.72266v16.0957
		l-74.51758-55.75293V300.11719z"/>
	<path class="st0" d="M272.29834,377.79785l44.80713-169.12549h10.9209l-44.96777,169.12549H272.29834z"/>
	<path class="st0" d="M446.70605,312.94727l-74.51758,55.51953v-16.0957l63.27539-45.72266v-0.4668l-63.27539-45.72168v-16.09619
		l74.51758,55.52002V312.94727z"/>
</g>
<circle class="st1" cx="300" cy="300" r="248.21532"/>
<g>
</g>
<g>
</g>
<g>
</g>
<g>
</g>
<g>
</g>
</svg>
